<?xml version="1.0" encoding="UTF-8"?>
<svg id="Calque_1" xmlns="http://www.w3.org/2000/svg" version="1.1" viewBox="0 0 393.5 393.5">
  <!-- Generator: Adobe Illustrator 29.2.1, SVG Export Plug-In . SVG Version: 2.1.0 Build 116)  -->
  <g>
    <path d="M197,114.8c.8.4,1.5,1.6,2,2.4,1.9,3.1,4.9,5.9,7.5,8.4,1.8,1.7,4.4,3.3,6.2,4.7.9.8,1,1.5,0,2.2-5.3,2.9-10.2,7.3-13.4,12.5-1.7,2.7-3,4-5,.5-2.4-4.2-6.3-7.9-10.2-10.8-1.8-1.5-6.9-3.4-2.7-5.4,4.8-2.8,9.5-7.1,12.5-11.9.8-1,1.6-2.9,3-2.7h.1s0,0,0,0Z"/>
    <path d="M48,163.8c28.4-.8,59.2-.8,87.5-1.1,36.1-.5,60,9.8,58.1,50.1h-1.9c-3.2-6.6-6.1-13.3-10.4-18.8-3.4-4.4-6.9-7.2-11.9-8.9-10-3.9-30.4-2.5-44.7-3-22.3-1-44.6-4.2-65.8-11.8-3.7-1.3-7.3-2.8-10.9-4.6v-1.9h0Z"/>
    <path d="M328.9,158.3c0,.2-.1.3-.3.3-19.6.7-41.4,1.3-61.1,1.8-24.4.9-57.7-2.7-66.4,26.3-1.9,5.8-2.9,11.9-3.8,18.2,0,.5-.1.9-.2,1.4,0,0,0,0,0,.1,0,0,0,0,0,0,0,0-.2.1-.2,0,0,0-.1,0-.2,0s0,0,0,0c0,0,0,0,0-.1l-.2-1.4c-.8-6.3-1.9-12.5-3.8-18.3-8.8-29.1-42.1-25.4-66.4-26.3-19.7-.4-41.5-1.1-61.1-1.8-.2,0-.3-.2-.3-.3,0-.2.2-.3.3-.3,19.6-.7,41.4-1.3,61.1-1.8,21.8-.3,49-4,63,12.1-12.1-20.3-41.1-17.5-62.9-18.2-19.7-.4-41.5-1.1-61.1-1.8-.2,0-.3-.1-.3-.3,0-.2.2-.3.3-.3,19.6-.7,41.4-1.3,61.1-1.8,27.4-.4,63.3-6.1,70.8,28.7,7.5-34.8,43.4-29.1,70.8-28.7,19.7.5,41.5,1.1,61.1,1.8.2,0,.3.2.3.3s-.1.3-.3.3c-19.6.7-41.4,1.4-61.1,1.8-21.8.8-50.8-2-62.9,18.2,14-16.1,41.1-12.4,63-12,19.7.5,41.5,1.1,61.1,1.8.2,0,.3.1.3.3h0Z"/>
    <path d="M345.5,165.8c-13.8,6.7-28.9,10.4-43.8,13-12.6,2.1-25.6,3.2-38.4,3.5-15,0-31.4-.9-41.6,3.7-6.9,3.2-11.2,9.6-14.9,16.6-1.7,3.2-3.2,6.6-5,10.3h-1.9c-1.9-40.2,22.1-50.6,58.1-50.1,28.3.2,59.1.3,87.5,1.1v1.9h0Z"/>
  </g>
  <g>
    <path d="M50.5,257.2c0-2.1.3-4.2,1-6.5.7-2.2,1.6-4.5,2.8-6.7,1.2-2.2,2.6-4.3,4.2-6.3s3.4-3.8,5.4-5.3,4-2.8,6.2-3.7c2.2-.9,4.3-1.3,6.5-1.3s2.2.5,2.8,1.4.9,2,.9,3.1-.1,1.4-.4,2.3-.7,1.7-1.2,2.6c-.5.9-1.1,1.6-1.7,2.2-.7.6-1.3.9-2.1.9,0-.5,0-1,.2-1.5.2-.5.4-.9.6-1.4s.5-.9.6-1.4.2-1,.2-1.6-.3-1.1-.9-1.3-1.2-.2-1.7-.2h-1.1c-2.4.9-4.7,2.1-7,3.7-2.3,1.5-4.3,3.3-6,5.3-1.8,2-3.2,4.2-4.2,6.6-1,2.4-1.5,5-1.5,7.7s.2,3.7.5,5.8.9,4,1.7,5.8c.8,1.8,2,3.3,3.4,4.5,1.4,1.2,3.2,1.8,5.3,1.8s3.5-.2,5.2-.5,3.4-.7,5.2-1.1c1.7-.4,3.4-.7,5.2-1s3.5-.5,5.2-.5.8,0,1.2.1c.4.1.6.4.6.9s-.2.6-.5,1-.7.8-1.2,1.1c-.5.4-.9.6-1.3.9-.4.2-.7.3-.8.4l-17.9,3.8c0,0-.3,0-.7,0-.3,0-.6,0-.8,0-1.7,0-3.2-.4-4.6-1-1.4-.7-2.6-1.6-3.6-2.7-1.1-1.1-2-2.4-2.7-3.9s-1.4-3-1.9-4.6-.8-3.2-1-4.8c-.2-1.6-.3-3.1-.3-4.5h0Z"/>
    <path d="M91.3,262.8c0-2.8.6-5.3,1.9-7.4s2.9-3.9,4.9-5.3c2-1.4,4.3-2.5,6.8-3.2,2.5-.7,5-1,7.5-1s2.6.2,3.8.7c1.2.5,2.3,1.2,3.3,2,1.1.9,2,1.8,2.8,2.9s1.5,2.3,2.1,3.4c.6,1.2,1,2.4,1.3,3.6s.5,2.4.5,3.5c0,2.6-.5,5-1.6,7-1,2.1-2.4,3.8-4.2,5.2-1.8,1.4-3.7,2.5-5.9,3.2-2.2.8-4.5,1.1-6.8,1.1s-4.6-.4-6.5-1.1c-2-.8-3.7-1.8-5.2-3.1s-2.6-3-3.4-5c-.8-2-1.2-4.2-1.2-6.6h0ZM95.1,262.2c0,1.6.3,3.1.9,4.6s1.4,2.8,2.5,3.8c1.1,1.1,2.3,2,3.8,2.6,1.4.6,3,1,4.6,1,.9.1,1.9,0,3.2-.4,1.3-.4,2.5-1,3.8-1.7s2.5-1.6,3.6-2.7c1.2-1.1,2.1-2.2,2.9-3.5.8-1.3,1.2-2.6,1.4-3.9.2-1.4,0-2.7-.7-4.1-.7-1.4-1.8-2.7-3.5-3.9-1.7-1.3-4.1-2.4-7-3.5-1.7,0-3.5.2-5.3.7-1.8.5-3.5,1.2-5,2.2-1.5,1-2.7,2.2-3.7,3.7-1,1.5-1.5,3.2-1.5,5.2h0Z"/>
    <path d="M131.6,278c-.5-3.7-.8-7.3-1-10.9s-.2-7.3-.2-10.9,0-7.3.1-10.9c.1-3.6.1-7.2,0-10.8,0-.4.1-.7.5-.9s.7-.2,1.1-.2.9.2,1.2.5c.4.3.7.8.9,1.2s.4,1,.6,1.5.2.9.2,1.2c.3,7.4.5,13.5.6,18.4.1,4.9.1,8.9,0,11.9s-.3,5.2-.5,6.7-.5,2.4-.9,2.9-.8.7-1.3.6-1-.2-1.5-.3h0Z"/>
    <path d="M141.1,278c-.5-3.7-.8-7.3-1-10.9s-.2-7.3-.2-10.9,0-7.3.1-10.9c.1-3.6.1-7.2,0-10.8,0-.4.1-.7.5-.9s.7-.2,1.1-.2.9.2,1.2.5c.4.3.7.8.9,1.2s.4,1,.6,1.5.2.9.2,1.2c.3,7.4.5,13.5.6,18.4.1,4.9.1,8.9,0,11.9s-.3,5.2-.5,6.7-.5,2.4-.9,2.9-.8.7-1.3.6-1-.2-1.5-.3h0Z"/>
    <path d="M148.9,265.5c0-.9.3-1.9.8-3,.5-1.1,1.2-2.2,2.2-3.3,1-1.1,2.2-2,3.7-2.9s3.3-1.5,5.3-1.8c2-.4,4.4-.4,7,0s5.5,1.1,8.7,2.3v-1.5c0-1.3-.5-2.7-1.2-4.1s-1.8-2.6-3-3.8c-1.2-1.1-2.5-2-3.9-2.7s-2.7-1-4-1-1,0-1.4.2-.8.4-1.1.6-.7.4-1,.6c-.3.2-.7.3-1.2.3s-.1,0-.1,0h-.1c-.1-.2-.2-.4-.4-.5-.2-.1-.3-.3-.3-.3,0-.9.2-1.7.5-2.4s.8-1.2,1.4-1.6c.6-.4,1.3-.7,2-1,.8-.2,1.5-.4,2.4-.4,2.1.2,4,.8,5.9,1.9,1.9,1.1,3.6,2.4,5.2,4,1.6,1.6,2.9,3.4,4.1,5.5s2.2,4.2,3,6.5c.8,2.2,1.3,4.5,1.6,6.8.3,2.4.3,4.6,0,6.6,0,0-.2,0-.5,0-.3,0-.5,0-.9,0-.3,0-.6,0-.8-.1h-.4c-1.1-2.5-2.3-4.5-3.6-6-1.3-1.5-2.7-2.7-4-3.5-1.3-.9-2.5-1.4-3.7-1.8-1.1-.3-2.1-.6-2.8-.7-.8,0-1.7,0-2.8.1s-2.1.3-3.3.5c-1.1.3-2.3.6-3.4,1-1.2.4-2.2,1-3.1,1.6s-1.6,1.4-2.2,2.2-.8,1.8-.8,3,.5,2.3,1.5,3.1,2.2,1.5,3.6,2.1,2.8.9,4.2,1.1c1.4.2,2.6.3,3.5.3,1.4,0,2.9,0,4.2-.2,1.4-.1,2.8-.3,4.1-.5,1.4-.2,2.7-.4,4.1-.5s2.7-.2,4-.2h.5c.3,0,.5,0,.8,0s.5,0,.8,0h.5c.4.1.6.4.7.7,0,.3,0,.6,0,.9s-.3.6-1,1c-.6.4-1.5.7-2.5,1.1s-2.2.7-3.4,1.1c-1.3.4-2.5.7-3.6,1s-2.2.5-3.2.7-1.7.3-2.1.3c-2.2,0-4.5-.2-6.9-.5-2.4-.4-4.6-1-6.6-2s-3.7-2.3-5-4-2-3.9-2-6.6h0Z"/>
    <path d="M189.7,241.5c-.3-2.3-.6-4.2-.9-5.8-.4-1.6-.5-2.9-.5-3.9s.4-1.8,1-2.4c.7-.6,1.8-.9,3.5-1.2.1.5.2,1.5.4,2.9.1,1.4.3,3.1.5,4.9s.4,3.7.6,5.7c.2,2,.4,3.8.7,5.4s.4,3,.7,4c.3,1.1.5,1.6.7,1.6.9,0,1.8-.1,2.8-.5.9-.3,1.9-.5,2.9-.5,1.6,0,3.2.1,4.9.4,1.8.3,3.5.7,5.2,1.3,1.7.6,3.4,1.3,5,2.2,1.6.9,3,1.9,4.2,3.1,1.2,1.2,2.2,2.5,2.9,4.1.7,1.5,1.1,3.2,1.1,5.1s-.6,4.3-1.7,5.7c-1.2,1.4-2.6,2.5-4.4,3.2s-3.8,1.2-5.9,1.4c-2.2.2-4.2.3-6,.3s-4.7-.3-6.4-1c-1.7-.6-3.1-1.5-4.2-2.7-1.1-1.1-1.9-2.5-2.5-3.9-.6-1.5-1-3.1-1.2-4.9-.3-1.8-.4-3.6-.5-5.6-.1-1.9-.3-3.9-.5-5.8,0-.4-.2-1.2-.4-2.4-.2-1.3-.4-2.6-.7-4.2-.3-1.5-.5-2.9-.7-4.2-.2-1.3-.3-2.1-.4-2.5h0ZM197.1,261.8c-.5,2.3-.4,4.2.4,5.9.8,1.6,2,3,3.5,4.1,1.5,1.1,3.3,1.8,5.3,2.2,2,.4,4,.5,5.9.2,2-.3,3.7-.9,5.3-1.8,1.6-1,2.8-2.3,3.6-4,0-1.4-.3-2.6-1-3.8-.6-1.1-1.5-2.1-2.5-3-1-.9-2.2-1.6-3.5-2.3-1.3-.6-2.7-1.2-4-1.6-1.4-.4-2.7-.7-4.1-1-1.3-.2-2.5-.4-3.6-.4-1.7,0-3,.5-3.9,1.5-.9,1-1.4,2.3-1.4,4h0Z"/>
    <path d="M228.4,223.6v-.8c0-.2,0-.4.1-.6.1-.2.3-.4.5-.6l.8-.8c.6.3,1.1.9,1.5,1.6.4.8.8,1.7,1.1,2.7s.5,2.1.7,3.3c.1,1.2.3,2.4.4,3.6.1,1.2.2,2.2.2,3.2,0,1,0,1.8,0,2.4s0,1.3-.1,1.8c-.1.5-.6.7-1.4.7s-1.2-.4-1.7-1.2c-.4-.8-.8-1.7-1.1-2.9-.3-1.2-.5-2.4-.6-3.8-.1-1.4-.2-2.7-.3-3.9,0-1.2,0-2.3,0-3.1v-1.6h0Z"/>
    <path d="M236.4,262.8c0-2.8.6-5.3,1.9-7.4s2.9-3.9,4.9-5.3c2-1.4,4.3-2.5,6.8-3.2,2.5-.7,5-1,7.5-1s2.6.2,3.8.7c1.2.5,2.3,1.2,3.3,2,1.1.9,2,1.8,2.8,2.9s1.5,2.3,2.1,3.4c.6,1.2,1,2.4,1.4,3.6s.5,2.4.5,3.5c0,2.6-.5,5-1.5,7s-2.4,3.8-4.2,5.2c-1.8,1.4-3.7,2.5-6,3.2-2.2.8-4.5,1.1-6.8,1.1s-4.6-.4-6.5-1.1c-2-.8-3.7-1.8-5.2-3.1-1.5-1.3-2.6-3-3.4-5-.8-2-1.2-4.2-1.2-6.6h0ZM240.2,262.2c0,1.6.3,3.1.9,4.6s1.4,2.8,2.5,3.8c1.1,1.1,2.3,2,3.8,2.6,1.4.6,3,1,4.6,1,.9.1,1.9,0,3.2-.4,1.3-.4,2.5-1,3.8-1.7s2.5-1.6,3.6-2.7,2.1-2.2,2.9-3.5,1.2-2.6,1.4-3.9c.2-1.4,0-2.7-.7-4.1-.6-1.4-1.8-2.7-3.5-3.9-1.7-1.3-4-2.4-7-3.5-1.7,0-3.5.2-5.3.7-1.8.5-3.5,1.2-5,2.2-1.5,1-2.7,2.2-3.7,3.7-1,1.5-1.5,3.2-1.5,5.2h0Z"/>
    <path d="M275,262.8c0-2.8.6-5.3,1.9-7.4s2.9-3.9,4.9-5.3c2-1.4,4.3-2.5,6.8-3.2,2.5-.7,5-1,7.5-1s2.6.2,3.8.7c1.2.5,2.3,1.2,3.3,2,1.1.9,2,1.8,2.8,2.9s1.5,2.3,2.1,3.4c.6,1.2,1,2.4,1.4,3.6s.5,2.4.5,3.5c0,2.6-.5,5-1.5,7s-2.4,3.8-4.2,5.2c-1.8,1.4-3.7,2.5-6,3.2-2.2.8-4.5,1.1-6.8,1.1s-4.5-.4-6.5-1.1c-2-.8-3.7-1.8-5.2-3.1s-2.6-3-3.4-5c-.8-2-1.2-4.2-1.2-6.6h0ZM278.8,262.2c0,1.6.3,3.1.9,4.6.6,1.5,1.4,2.8,2.5,3.8,1.1,1.1,2.3,2,3.8,2.6,1.4.6,3,1,4.6,1,.9.1,2,0,3.2-.4,1.3-.4,2.5-1,3.8-1.7s2.5-1.6,3.6-2.7,2.1-2.2,2.9-3.5,1.2-2.6,1.4-3.9c.2-1.4,0-2.7-.7-4.1-.6-1.4-1.8-2.7-3.5-3.9-1.7-1.3-4-2.4-7-3.5-1.7,0-3.5.2-5.3.7-1.8.5-3.5,1.2-5,2.2-1.5,1-2.7,2.2-3.7,3.7-1,1.5-1.5,3.2-1.5,5.2h0Z"/>
    <path d="M316,276.4c0-.1,0-.4,0-.8s.1-.9.2-1.4c.1-.5.2-1,.2-1.4,0-.4,0-.7,0-.8v-.8c0-.4,0-.9,0-1.5s0-1.2,0-1.8v-2.6c0-.5,0-1,0-1.6,0-.5,0-1,0-1.4v-.7c-.1-2.4-.5-4.9-.9-7.5-.4-2.6-.9-5.3-1.4-7.9-.5-2.6-1-5.2-1.4-7.7-.4-2.5-.8-4.8-1-7,.5-1.2,1-1.7,1.5-1.3s1.1,1.3,1.7,2.8c.6,1.4,1.1,3.2,1.7,5.4.6,2.1,1.1,4.3,1.5,6.5.4,2.2.8,4.3,1.2,6.3.3,2,.6,3.5.8,4.6.1.1.3.1.6.1h.6c1,0,1.9-.3,2.7-.9s1.5-1.4,2.2-2.4c.7-.9,1.4-2,2-3.1.7-1.1,1.4-2.1,2.1-3.1.7-.9,1.5-1.7,2.4-2.4.9-.6,1.9-1,3-1s1.2.2,1.3.7.2.9.1,1.5c-.7.6-1.5,1.3-2.5,2.2s-1.9,1.9-3,3c-1.1,1.1-2.1,2.2-3.2,3.4-1.1,1.2-2,2.3-2.8,3.4-.8,1.1-1.5,2.2-2,3.2s-.8,1.9-.8,2.7c0,1.1.4,2.2,1.1,3.1.8.9,1.7,1.8,2.9,2.5,1.2.8,2.5,1.4,3.9,2,1.4.5,2.9,1,4.3,1.4,1.4.4,2.8.7,4.1.9,1.2.2,2.3.3,3.1.3.5.1.7.4.8.8s0,.8,0,1.2c0,.8-.2,1.3-.7,1.7-.5.4-1.1.6-1.8.8s-1.4.2-2.2.2h-1.9c-1.1,0-2.4-.4-3.9-1.1s-2.9-1.5-4.2-2.4c-1.4-.9-2.6-1.6-3.6-2.4-1-.7-1.8-1.1-2.2-1.1-.8,0-1.4.4-1.7,1.2-.3.8-.5,1.7-.6,2.6-.1.9-.3,1.8-.5,2.6s-.7,1.2-1.5,1.2-1.3-.2-1.9-.5c-.6-.4-.9-1-.9-1.8h0Z"/>
  </g>
</svg>